<svg xmlns="http://www.w3.org/2000/svg" xmlns:xlink="http://www.w3.org/1999/xlink" preserveAspectRatio="xMidYMid meet" version="1.0" viewBox="0.0 0.0 255.0 297.0" zoomAndPan="magnify" style="fill: rgb(204, 34, 170);" original_string_length="1553"><g id="__id43_ssfaay87ru"><path d="M166.7,92.3c5.5,0,10,4.5,10,10s-4.5,10-10,10s-10-4.5-10-10S161.1,92.3,166.7,92.3z M88.3,92.3c5.5,0,10,4.5,10,10 s-4.5,10-10,10s-10-4.5-10-10S82.8,92.3,88.3,92.3z M10,92.3c5.5,0,10,4.5,10,10s-4.5,10-10,10c-5.5,0-10-4.5-10-10 S4.5,92.3,10,92.3z M245,92.3c5.5,0,10,4.5,10,10s-4.5,10-10,10s-10-4.5-10-10S239.5,92.3,245,92.3z M166.7,184.7 c5.5,0,10,4.5,10,10s-4.5,10-10,10s-10-4.5-10-10S161.1,184.7,166.7,184.7z M88.3,184.7c5.5,0,10,4.5,10,10s-4.5,10-10,10 s-10-4.5-10-10S82.8,184.7,88.3,184.7z M10,184.7c5.5,0,10,4.5,10,10s-4.5,10-10,10c-5.5,0-10-4.5-10-10S4.5,184.7,10,184.7z M245,184.7c5.5,0,10,4.5,10,10s-4.5,10-10,10s-10-4.5-10-10S239.5,184.7,245,184.7z M166.7,0c5.5,0,10,4.5,10,10s-4.5,10-10,10 s-10-4.5-10-10S161.1,0,166.7,0z M88.3,0c5.5,0,10,4.5,10,10s-4.5,10-10,10s-10-4.5-10-10S82.8,0,88.3,0z M10,0c5.5,0,10,4.5,10,10 s-4.5,10-10,10C4.5,20,0,15.5,0,10S4.5,0,10,0z M245,0c5.5,0,10,4.5,10,10s-4.5,10-10,10s-10-4.5-10-10S239.5,0,245,0z M166.7,277 c5.5,0,10,4.5,10,10s-4.5,10-10,10s-10-4.5-10-10S161.1,277,166.7,277z M88.3,277c5.5,0,10,4.5,10,10s-4.5,10-10,10s-10-4.5-10-10 S82.8,277,88.3,277z M10,277c5.5,0,10,4.5,10,10s-4.5,10-10,10c-5.5,0-10-4.5-10-10S4.5,277,10,277z M245,277c5.5,0,10,4.5,10,10 s-4.5,10-10,10s-10-4.5-10-10S239.5,277,245,277z" style="fill: inherit;"/></g></svg>