<svg xmlns="http://www.w3.org/2000/svg" xmlns:xlink="http://www.w3.org/1999/xlink" data-name="Circular Glyph" preserveAspectRatio="xMidYMid meet" version="1.0" viewBox="0.0 0.0 64.0 64.0" zoomAndPan="magnify" style="fill: rgb(10, 78, 122);" original_string_length="669">
        <path d="M24.06,26.84a7.94,7.94,0,0,0,15.88,0C39.51,16.3,24.49,16.3,24.06,26.84ZM32,32.67a5.835,5.835,0,1,1,5.84-5.83A5.83509,5.83509,0,0,1,32,32.67Z" style="fill: inherit;"/>
        <path d="M32,0A32,32,0,1,0,64,32,32.004,32.004,0,0,0,32,0Zm.64,51.78a1.05027,1.05027,0,0,1-1.28,0c-.58-.44-14.19-11-14.19-24.94a14.83,14.83,0,1,1,29.66,0C46.83,40.78,33.22,51.34,32.64,51.78Z" style="fill: inherit;"/>
</svg>