<svg xmlns="http://www.w3.org/2000/svg" xmlns:xlink="http://www.w3.org/1999/xlink" fill="none" preserveAspectRatio="xMidYMid meet" style="fill: none;" version="1.0" viewBox="1.0 1.0 30.0 30.0" zoomAndPan="magnify" original_string_length="841"><g id="__id45_s1udqey48c"><path clip-rule="evenodd" d="M16 31C24.2843 31 31 24.2843 31 16C31 7.71573 24.2843 1 16 1C7.71573 1 1 7.71573 1 16C1 24.2843 7.71573 31 16 31ZM8 12C8 11.1967 8.65122 10.5455 9.45454 10.5455H20.3636H23.2727C23.5463 10.5455 23.7967 10.6989 23.9208 10.9427C24.0449 11.1865 24.0218 11.4793 23.8609 11.7005L21.0909 15.5092V20C21.0909 20.8033 20.4397 21.4545 19.6364 21.4545H9.45454C8.65122 21.4545 8 20.8033 8 20V12ZM10.9091 15.2727H18.1818V13.8182H10.9091V15.2727ZM16 18.1818H10.9091V16.7273H16V18.1818Z" fill-rule="evenodd" style="fill: rgb(10, 78, 122);"/></g></svg>