<svg xmlns="http://www.w3.org/2000/svg" xmlns:xlink="http://www.w3.org/1999/xlink" preserveAspectRatio="xMidYMid meet" version="1.0" viewBox="110.2 128.6 262.3 262.3" zoomAndPan="magnify" style="fill: rgb(0, 0, 0);" original_string_length="3080"><g id="__id47_s1udqey48c"><path d="M 311.59375 271.164062 C 311.503906 271.171875 311.414062 271.171875 311.324219 271.171875 C 308.976562 271.171875 307.007812 269.339844 306.867188 266.964844 C 305.792969 248.804688 298.3125 231.542969 285.820312 218.355469 C 273.320312 205.171875 256.480469 196.78125 238.402344 194.738281 C 235.949219 194.460938 234.1875 192.246094 234.464844 189.792969 C 234.742188 187.339844 236.964844 185.5625 239.410156 185.851562 C 259.578125 188.132812 278.363281 197.492188 292.308594 212.203125 C 306.253906 226.914062 314.59375 246.175781 315.792969 266.4375 C 315.9375 268.902344 314.058594 271.019531 311.59375 271.164062 Z M 237.207031 218.125 C 237.484375 215.675781 239.6875 213.921875 242.15625 214.1875 C 254.164062 215.546875 265.355469 221.121094 273.65625 229.882812 C 281.960938 238.644531 286.929688 250.113281 287.644531 262.179688 C 287.789062 264.644531 285.910156 266.761719 283.445312 266.90625 C 283.355469 266.914062 283.265625 266.914062 283.175781 266.914062 C 280.828125 266.914062 278.855469 265.085938 278.71875 262.710938 C 278.128906 252.742188 274.023438 243.269531 267.167969 236.035156 C 260.3125 228.800781 251.070312 224.195312 241.144531 223.070312 C 238.695312 222.796875 236.933594 220.578125 237.207031 218.125 Z M 304.398438 328.835938 C 304.265625 328.972656 299.074219 333.878906 298.933594 334.015625 C 289.320312 343.257812 274.214844 345.09375 261.675781 342.15625 C 257.097656 341.085938 252.640625 339.546875 248.328125 337.675781 C 228.878906 329.222656 210.425781 314.269531 195.605469 298.546875 C 180.695312 282.902344 166.753906 263.679688 159.355469 243.804688 C 157.714844 239.398438 156.417969 234.863281 155.589844 230.234375 C 153.328125 217.558594 155.96875 202.574219 165.714844 193.46875 C 165.859375 193.332031 171.035156 188.414062 171.179688 188.285156 C 180.835938 179.808594 189.089844 190.5625 196.785156 198.828125 C 203.359375 205.886719 214.40625 217.507812 212.570312 228.121094 C 211.554688 234.015625 205.292969 238.324219 203.117188 244.105469 C 200.34375 251.476562 201.652344 258.820312 206.304688 265.125 C 209.421875 269.34375 213.21875 273.839844 217.269531 278.011719 C 221.21875 282.277344 225.503906 286.3125 229.550781 289.648438 C 235.597656 294.632812 242.859375 296.335938 250.371094 293.957031 C 256.257812 292.09375 260.894531 286.074219 266.835938 285.371094 C 277.53125 284.105469 288.546875 295.761719 295.242188 302.703125 C 303.082031 310.832031 313.382812 319.644531 304.398438 328.835938 Z M 241.347656 128.558594 C 168.921875 128.558594 110.207031 187.273438 110.207031 259.703125 C 110.207031 332.128906 168.921875 390.84375 241.347656 390.84375 C 313.777344 390.84375 372.488281 332.128906 372.488281 259.703125 C 372.488281 187.273438 313.777344 128.558594 241.347656 128.558594" style="fill: rgb(10, 78, 122);"/></g></svg>